<?xml version="1.0" encoding="iso-8859-1"?>
<!-- Generator: Adobe Illustrator 16.0.0, SVG Export Plug-In . SVG Version: 6.00 Build 0)  -->
<!DOCTYPE svg PUBLIC "-//W3C//DTD SVG 1.1//EN" "http://www.w3.org/Graphics/SVG/1.1/DTD/svg11.dtd">
<svg version="1.1" id="Capa_1" xmlns="http://www.w3.org/2000/svg" xmlns:xlink="http://www.w3.org/1999/xlink" x="0px" y="0px"
	 width="554.836px" height="554.836px" viewBox="0 0 654.836 654.836" style="enable-background:new 0 0 654.836 654.836;"
	 xml:space="preserve">
<g>
	<path
  fill="#CDD977"
  d="M487.329,654.836h-81.953c-8.552,0-15.492-6.94-15.492-15.492V495.608c0-18.622-15.151-33.773-33.772-33.773h-57.444
		c-18.622,0-33.773,15.151-33.773,33.773v143.735c0,8.552-6.94,15.492-15.492,15.492h-82.263c-35.725,0-64.757-29.063-64.757-64.757
		V364.823c-18.869,0.806-49.327,1.55-49.358,1.55c-4.523,0.558-8.675-1.395-11.774-4.523c-26.336-26.337-26.46-77.926-0.31-104.138
		l238.64-238.609c25.438-25.469,69.837-25.469,95.337,0l238.609,238.609c26.368,26.429,26.554,78.018,0.403,104.138
		c-3.099,3.129-7.22,5.081-11.774,4.523c-0.093,0-30.612-1.797-50.07-1.55v225.256C552.086,625.804,523.054,654.836,487.329,654.836
		z M420.899,623.852h66.461c18.621,0,33.772-15.151,33.772-33.772V350.912c0-17.072,18.126-17.072,32.688-17.072
		c13.633,0,31.883,0.743,42.139,1.208c10.132-15.678,8.613-42.417-4.369-55.431L352.981,41.008
		c-13.757-13.726-37.738-13.726-51.526,0L62.846,279.648c-12.828,12.858-14.036,39.66-3.688,55.431
		c10.163-0.465,28.196-1.209,41.674-1.209c14.47,0,32.502,0,32.502,17.072v239.167c0,18.622,15.151,33.773,33.773,33.773h66.771
		V495.639c0-35.693,29.063-64.757,64.757-64.757h57.476c35.693,0,64.757,29.063,64.757,64.757v128.213H420.899z"/>
</g>
<g>
</g>
<g>
</g>
<g>
</g>
<g>
</g>
<g>
</g>
<g>
</g>
<g>
</g>
<g>
</g>
<g>
</g>
<g>
</g>
<g>
</g>
<g>
</g>
<g>
</g>
<g>
</g>
<g>
</g>
</svg>
